<?xml version="1.0" encoding="UTF-8"?><svg id="Layer_1" xmlns="http://www.w3.org/2000/svg" viewBox="0 0 476.03 456.76"><defs><style>.cls-1{fill:#f99815;}.cls-2{fill:#262626;}.cls-3{fill:#147f55;}.cls-4{fill:#d40829;}</style></defs><path class="cls-1" d="M244.72,114.9c39.58,2.94,74.01,32.46,81.9,71.59,1.04,5.15,2.6,14.63,1.76,19.62-1.24,7.37-12.77,7.48-13.71-.76-.34-2.92-.14-6.45-.49-9.44-5.43-46.94-52.46-77.58-97.85-63.85-4.83,1.46-11.61,6.13-15.88,1.43-3.12-3.43-2.18-8.53,1.73-10.82,6.74-3.96,22.73-7.27,30.45-7.76h12.09Z"/><path class="cls-3" d="M240.4,335.96h-3.45c-2.57-.88-4.74-2.18-5.14-4.47.83-8.78-1.25-18.99-.04-27.59.89-6.31,13.04-6.51,13.84.32,1.01,8.67-.75,18.48-.06,27.28-.41,2.29-2.57,3.59-5.14,4.47Z"/><path class="cls-3" d="M263.13,180.24c5.8,5.8,11.63,17.93,9.89,26.21-1.45,6.88-12.11,6.9-13.52-.34-1.18-6.05-.4-8.94-4.67-14.33-11.94-15.04-36.09-6.69-36.9,12.25l.02,111.84c-1.18,8.47-13.06,8.41-13.84-.42v-113.16c2.21-29.08,37.99-43.1,59.02-22.07Z"/><path class="cls-3" d="M234.7,142.66c13.55-.91,27.99,2.93,39.08,10.75,4.07,2.87,8.86,6.42,5.24,11.99-4.76,7.32-11.6.01-16.31-2.64-31.3-17.65-70.14,3.43-72.41,39.13-.3,4.67,1.04,16.92-.91,20.25-3.3,5.66-12.17,3.76-12.89-2.96-.49-4.55-.28-12.58-.02-17.29,1.74-31.61,26.55-57.09,58.22-59.22Z"/><path class="cls-3" d="M175.52,142.64c3.64-.59,6.86,1.29,7.9,4.84,1.53,5.2-3.34,8.38-5.99,12.18-23.05,33.03-12.36,70.41-14.79,108.26-1.6,8.05-12.65,7.74-13.78-.39,2-40.7-8.27-81.55,17.78-116.5,1.92-2.58,5.74-7.88,8.88-8.39Z"/><path class="cls-2" d="M288.65,177.17c2.04-.32,4.68.4,6.15,1.84,3.38,3.3,5.8,17.97,6.06,22.87,1.66,30.55-1.28,62.58-.02,93.28-1.18,8.36-12.64,8.36-13.82,0l.02-93.71c.46-5.46-4.26-13.37-3.93-18.13.2-2.85,2.66-5.69,5.53-6.14Z"/><path class="cls-4" d="M264.9,222.27c4.4-.76,8.07,2.25,8.33,6.97l-.02,88.87c-1.2,9.01-13.06,8.9-13.84-.44l.02-88.87c.22-3.08,2.64-6.04,5.5-6.53Z"/><path class="cls-3" d="M237.27,197.9c4.4-.71,8.07,2.12,8.33,6.57l-.02,63.06c-1.2,8.49-13.06,8.39-13.84-.42l.02-63.06c.22-2.91,2.64-5.69,5.5-6.15Z"/><path class="cls-3" d="M182,239.35c4.5-.73,7.94,2.09,8.33,6.57,1.39,15.78-1.05,33.63-.06,49.63-1.65,8.18-13.04,7.78-13.8-.81-1.38-15.67,1.07-33.35.02-49.24.22-2.91,2.64-5.69,5.5-6.15Z"/><path class="cls-3" d="M320.16,225.53c4.5-.73,7.94,2.09,8.33,6.57,1.01,11.39-.75,24.27-.06,35.82-1.65,8.18-13.04,7.78-13.8-.81-1.01-11.39.75-24.27.06-35.82.37-2.73,2.75-5.32,5.46-5.76Z"/><ellipse class="cls-3" cx="238.54" cy="288.72" rx="6.94" ry="6.51"/></svg>